<svg width="500" height="400" viewBox="0 0 500 400" xmlns="http://www.w3.org/2000/svg">
  <g transform="translate(100, 50)">
    <circle cx="40" cy="20" r="14" fill="white" />
    <rect x="26" y="55" width="28" height="185" rx="14" fill="white" />
    <path d="M70,55 C230,55 260,110 260,150 C260,190 230,245 70,245 L70,210 C180,210 220,180 220,150 C220,120 180,90 70,90 Z" fill="white" />
    <path d="M80,105 L115,190 L150,105 L185,190 L185,225 L165,225 L165,155 L115,240 L65,155 L65,225 L45,225 L45,105 Z" fill="white" />
    <text x="135" y="325" font-family="Arial, sans-serif" font-weight="900" font-size="54" text-anchor="middle" fill="white" letter-spacing="1">ID MATRIX</text>
  </g>
</svg>
